<svg xmlns="http://www.w3.org/2000/svg" height="24" viewBox="0 -960 960 960" width="24"><path d="M252.309-100.001q-30.308 0-51.308-21t-21-51.308v-615.382q0-30.308 21-51.308t51.308-21h455.382q30.308 0 51.308 21t21 51.308v615.382q0 30.308-21 51.308t-51.308 21H252.309Zm0-59.999h455.382q4.616 0 8.463-3.846 3.846-3.847 3.846-8.463v-615.382q0-4.616-3.846-8.463-3.847-3.846-8.463-3.846H640v262.306l-89.999-53.845-90 53.845V-800H252.309q-4.616 0-8.463 3.846-3.846 3.847-3.846 8.463v615.382q0 4.616 3.846 8.463 3.847 3.846 8.463 3.846Zm42.307-90.001h373.845L546.154-413.076 443.077-279.231l-64.615-81.999-83.846 111.229ZM240-160V-800-160Zm220.001-377.694 90-53.845L640-537.694l-89.999-53.845-90 53.845Z"/></svg>